# xmcd
#
# Track frame offsets:
#	150
#	12525
#	26775
#	42150
#	51900
#	66900
#	81825
#	99525
#	113025
#	132150
#	150150
#	166275
#
# Disc length: 2445
#
# Revision: 1
# Processed by: cddbd v1.5.1PL0 Copyright (c) Steve Scherf et al.
# Submitted via: uFREEDB 1.6.0
# Normalized: r0:TDELIM( - )
#
DISCID=95098b0c
DTITLE=Various Artist - CDX Vol 16
DYEAR=1991
DGENRE=Country
TTITLE0=Mark O'Connor - Bowtie
TTITLE1=Mark Chestnutt - Broken Promise Land
TTITLE2=Pirates Of The Mississippi - Fighting For You
TTITLE3=David Schnaufer - Fisher's Hornpipe
TTITLE4=Mary-Chapin Carpenter - Going Out Tonight
TTITLE5=Charlie Daniels - Little Folks
TTITLE6=Collin Raye - Love Me
TTITLE7=Brooks and Dunn - My Next Broken Heart
TTITLE8=Holly Dunn - No One Takes The Train Anymore
TTITLE9=J.P. Pennington - Old Familiar Ring
TTITLE10=Dan Seals - Sweet Little Shoe
TTITLE11=Lacy J. Dalton - The Deal
EXTD=
EXTT0=
EXTT1=
EXTT2=
EXTT3=
EXTT4=
EXTT5=
EXTT6=
EXTT7=
EXTT8=
EXTT9=
EXTT10=
EXTT11=
PLAYORDER=
